<svg width="18" height="16" viewBox="0 0 18 16" fill="none" xmlns="http://www.w3.org/2000/svg">
<path d="M12.3545 15.1424L12.3548 12.4642C12.3549 10.9849 11.1557 9.7856 9.67637 9.7856H3.67868C2.19957 9.7856 1.00047 10.9846 1.0003 12.4637L1 15.1424M16.9998 15.1425L17 12.4644C17.0001 10.985 15.8009 9.78574 14.3216 9.78574M11.8386 1.38384C12.4964 1.87187 12.9226 2.65425 12.9226 3.53619C12.9226 4.41813 12.4964 5.20051 11.8386 5.68854M9.4115 3.53605C9.4115 5.01527 8.21235 6.21443 6.73312 6.21443C5.25389 6.21443 4.05474 5.01527 4.05474 3.53605C4.05474 2.05682 5.25389 0.857666 6.73312 0.857666C8.21235 0.857666 9.4115 2.05682 9.4115 3.53605Z" stroke="#0EC243" stroke-width="1.5" stroke-linecap="round" stroke-linejoin="round"/>
</svg>
