<svg width="18" height="18" viewBox="0 0 18 18" fill="none" xmlns="http://www.w3.org/2000/svg">
<path d="M17 12.8V13.55C17.4142 13.55 17.75 13.2142 17.75 12.8H17ZM17 8.39995H17.75C17.75 7.98574 17.4142 7.64995 17 7.64995V8.39995ZM4.99443 4.16907C4.646 4.39306 4.54513 4.85709 4.76912 5.20552C4.9931 5.55395 5.45714 5.65482 5.80557 5.43084L4.99443 4.16907ZM11 1.19995L11.592 0.739496C11.3537 0.433087 10.921 0.359158 10.5944 0.569067L11 1.19995ZM13.208 5.26041C13.4623 5.58737 13.9335 5.64627 14.2605 5.39197C14.5874 5.13766 14.6463 4.66646 14.392 4.3395L13.208 5.26041ZM17 12.05H14.4V13.55H17V12.05ZM14.4 9.14995H17V7.64995H14.4V9.14995ZM16.25 8.39995V12.8H17.75V8.39995H16.25ZM12.95 10.6C12.95 9.79914 13.5992 9.14995 14.4 9.14995V7.64995C12.7708 7.64995 11.45 8.97071 11.45 10.6H12.95ZM14.4 12.05C13.5992 12.05 12.95 11.4008 12.95 10.6H11.45C11.45 12.2292 12.7708 13.55 14.4 13.55V12.05ZM5.80557 5.43084L11.4056 1.83083L10.5944 0.569067L4.99443 4.16907L5.80557 5.43084ZM10.408 1.66041L13.208 5.26041L14.392 4.3395L11.592 0.739496L10.408 1.66041ZM1.8 5.54995H15.4V4.04995H1.8V5.54995ZM15.4 16.05H1.8V17.55H15.4V16.05ZM1.75 16V5.59995H0.25V16H1.75ZM1.8 16.05C1.77239 16.05 1.75 16.0276 1.75 16H0.25C0.25 16.856 0.943957 17.55 1.8 17.55V16.05ZM15.45 16C15.45 16.0276 15.4276 16.05 15.4 16.05V17.55C16.256 17.55 16.95 16.856 16.95 16H15.45ZM15.4 5.54995C15.4276 5.54995 15.45 5.57233 15.45 5.59995H16.95C16.95 4.74391 16.256 4.04995 15.4 4.04995V5.54995ZM1.8 4.04995C0.943958 4.04995 0.25 4.74391 0.25 5.59995H1.75C1.75 5.57234 1.77239 5.54995 1.8 5.54995V4.04995ZM15.45 13.4V16H16.95V13.4H15.45ZM15.45 5.59995V7.69995H16.95V5.59995H15.45Z" fill="#333333"/>
</svg>
