<svg width="14" height="16" viewBox="0 0 14 16" fill="none" xmlns="http://www.w3.org/2000/svg">
<path d="M13.1412 3.74831C12.3424 3.57743 11.619 3.15587 11.0766 2.54507C10.5341 1.93427 10.2009 1.16618 10.1256 0.352754V0H7.36998V10.9362C7.36828 11.4203 7.21491 11.8918 6.93145 12.2843C6.64798 12.6768 6.24865 12.9706 5.78959 13.1244C5.33052 13.2783 4.83479 13.2844 4.37205 13.142C3.90931 12.9996 3.50283 12.7157 3.20973 12.3304C2.91207 11.9386 2.74695 11.4621 2.73832 10.9702C2.72969 10.4782 2.87798 9.99628 3.16171 9.59427C3.44543 9.19226 3.84983 8.89108 4.31626 8.73439C4.78269 8.57771 5.28691 8.57367 5.75579 8.72286V5.92322C4.71021 5.77868 3.6456 5.96457 2.71087 6.45489C1.77614 6.94521 1.01804 7.71543 0.542617 8.65782C0.0671909 9.60021 -0.101785 10.6676 0.0593244 11.7108C0.220434 12.7539 0.703571 13.7207 1.44116 14.4757C2.14455 15.1954 3.04646 15.6892 4.03174 15.894C5.01703 16.0988 6.041 16.0054 6.97295 15.6257C7.9049 15.2459 8.70255 14.5971 9.26409 13.7619C9.82562 12.9268 10.1256 11.9433 10.1256 10.937V5.3489C11.2393 6.14507 12.5745 6.57197 13.9435 6.56954V3.8315C13.6739 3.83183 13.405 3.80395 13.1412 3.74831Z" fill="#AAAAAA"/>
</svg>
