<svg width="16" height="11" viewBox="0 0 16 11" fill="none" xmlns="http://www.w3.org/2000/svg">
<path fill-rule="evenodd" clip-rule="evenodd" d="M14.2336 0.331979C14.9217 0.513058 15.466 1.04624 15.6508 1.72026C15.9897 2.94758 16 5.49276 16 5.49276C16 5.49276 16 8.04801 15.6611 9.26527C15.4763 9.93929 14.932 10.4725 14.2439 10.6536C13.0013 10.9855 8 10.9855 8 10.9855C8 10.9855 2.99872 10.9855 1.7561 10.6536C1.06804 10.4725 0.523749 9.93929 0.338896 9.26527C0 8.03795 0 5.49276 0 5.49276C0 5.49276 0 2.94758 0.328626 1.73032C0.513479 1.0563 1.05777 0.523122 1.74583 0.342043C2.98845 0.0100576 7.98973 0 7.98973 0C7.98973 0 12.991 0 14.2336 0.331979ZM10.5469 5.49277L6.39795 7.84681V3.13873L10.5469 5.49277Z" fill="#AAAAAA"/>
</svg>
